<svg version="1" viewBox="0 0 32 32" width="32" height="32" xmlns="http://www.w3.org/2000/svg">
 <defs>
  <linearGradient id="a" x1="-50.45" x2="-50.45" y1="-.040987" y2="-22.041" gradientUnits="userSpaceOnUse">
   <stop stop-color="#26a269" offset="0"/>
   <stop stop-color="#26a269" offset=".071429"/>
   <stop stop-color="#57e389" offset=".21429"/>
   <stop stop-color="#26a269" offset=".46429"/>
   <stop stop-color="#26a269" offset="1"/>
  </linearGradient>
 </defs>
 <g transform="matrix(1.2727 0 0 1.2727 1.9478 -33.208)" stroke-width=".55">
  <rect transform="matrix(0,-1,-1,0,0,0)" x="-50.45" y="-22.041" width="22" height="22" rx="11" ry="11" fill="url(#a)"/>
  <rect transform="matrix(0,-1,-1,0,0,0)" x="-49.664" y="-22.041" width="22" height="22" rx="11" ry="11" fill="#33d17a"/>
 </g>
 <g fill="#070c0f" stroke-width=".075822">
  <path d="m23.151 19.503-7.568 0.67584-7.5663-0.6753 7.5663 2.881zm-16.151 0.20687v1.0148l8.5828 3.2758 8.5758-3.2758v-1.0116l-8.4772 3.227a0.27729 0.27729 0 0 1-0.19712 0z"/>
  <path d="m15.583 22.681-8.583-3.2679s0.56866-0.21988 0.67481-0.25779c0.508-0.18956 1.0463-0.34878 1.5392-0.56108 1.0236-0.45493 2.1458-0.74305 3.2679-0.75822 0.64448-0.0075 1.2435 0.18955 1.8728 0.09098 0.72789-0.12131 1.4254-0.39427 2.1533-0.53833 1.3193-0.25021 2.6007 0.09098 3.8214 0.57624 1.2511 0.49284 2.4718 0.93261 3.7304 1.4103 0.03791 0.01516 0.06824 0.02274 0.10615 0.03791z"/>
  <path d="m9.813 19.58c-0.10615-2.3808 2.305-3.6622 4.0868-4.6403 1.5543-0.8492 3.4954-1.9562 3.0935-4.0261-0.08341-0.43218-0.74305-0.25021-0.65965 0.18197 0.18197 0.94777-0.35636 1.6681-1.0767 2.214-0.8492 0.64448-1.8273 1.0994-2.7523 1.6226-1.706 0.97052-3.4726 2.5021-3.3816 4.6479 0.022748 0.43976 0.70514 0.43976 0.68998 0z"/>
  <path d="m12.8 15.675c2.3656 0.49284 4.8602-0.2123 6.6116-1.8804 0.31845-0.30328-0.16681-0.78855-0.48526-0.48526-1.5619 1.5013-3.8214 2.1533-5.9444 1.706-0.4246-0.08341-0.61416 0.56866-0.18197 0.65965z"/>
  <path d="m12.8 10.708c0.62174 0.15164 1.6757-0.56866 2.1458-0.79613 0.60657-0.2957 1.2359-0.52317 1.85-0.79613 0.23505-0.10615 1.0008-0.34878 1.0084-0.68998 0.015163-0.4246-0.79613-0.44735-1.0615-0.41702-0.53833 0.053073-1.0615 0.21988-1.5771 0.37153-0.53075 0.15923-1.0463 0.37153-1.5392 0.6369-0.37153 0.19714-0.87953 0.54592-1.0994 0.90986-0.13648 0.21988-0.1289 0.54592 0.08341 0.69756 0.05307 0.03791 0.11373 0.06823 0.18955 0.0834z"/>
  <path d="m16.607 9.5559c0.10615-0.060659 0.2123-0.11373 0.31845-0.16681 0.87953-0.41702 1.8955-0.75822 2.8964-0.83404 0.87195-0.068235 1.8349-0.22746 2.6993 0.00753 0.44735 0.12131 0.94019 0.5535 0.70514 0.97052-0.17439 0.31087-0.88711 0.72789-1.198 0.95535-1.1449 0.81129-2.7447 1.1677-4.2081 1.2435-1.0615 0.06066-2.8054-0.54592-1.8349-1.6908 0.15922-0.19714 0.38669-0.34878 0.62174-0.48526z"/>
  <path d="m22.445 10.511c0.24263 0.0076 0.52317 0.06823 0.6369 0.28812 0.09098 0.18197 0.02274 0.40185-0.10615 0.5535-0.13648 0.15164-0.31845 0.23505-0.508 0.31087-0.94019 0.39427-1.9486 0.62932-2.9646 0.69756-0.28054 0.01516-0.57624 0.02274-0.8492-0.06824s-0.51559-0.2957-0.59141-0.56866c-0.16681-0.62932 1.2131-0.83404 1.5847-0.90228 0.37153-0.06825 0.74305-0.11373 1.1146-0.1289 0.56108-0.03791 1.107-0.20472 1.6832-0.18197z"/>
  <path d="m22.316 14.636c-0.37152-0.91744-2.6083 0.09099-3.1163 0.41702-0.18955 0.12132-0.38669 0.30329-0.34878 0.52317 0.03791 0.23505 0.31845 0.3412 0.56108 0.37153 0.58383 0.07582 3.3362-0.22746 2.904-1.3117z"/>
  <path d="m15.287 11.664c-0.09098 0.60657-0.90986 1.2738-1.4558 1.4634-0.53075 0.18956-1.4179-0.20472-1.0918-0.8492 0.28812-0.56108 1.7136-1.5619 2.3353-1.1525 0.18197 0.11373 0.24263 0.3412 0.2123 0.53834z"/>
  <path d="m16.864 14.681c0.87195 0.10615 1.7666-0.0075 2.5855-0.31845 0.18197-0.06824 0.37153-0.15923 0.44735-0.3412 0.05307-0.13648 0.01516-0.30329-0.09098-0.40186-0.10615-0.09857-0.27296-0.1289-0.40186-0.06824-0.24263-0.26538-0.66723-0.24263-1.0236-0.17439-0.56108 0.11374-1.1146 0.31845-1.6226 0.58383-0.18197 0.09857-0.38669 0.26538-0.33362 0.46251 0.05307 0.17439 0.25779 0.23505 0.43977 0.2578z"/>
  <path d="m17.873 13.976c1.1525 0.25779 2.4187-0.07582 3.4044-0.71272 0.1289-0.08341 0.27296-0.2123 0.25021-0.37153-0.03033-0.18955-0.27296-0.25021-0.4701-0.24263-1.1222 0.01516-2.2595 0.2957-3.2376 0.86436-0.11373 0.06066-0.23505 0.16681-0.20472 0.28812 0.03791 0.10615 0.15923 0.15164 0.25779 0.17439z"/>
  <path d="m12.103 12.445c0.10615-0.1289 0.19714-0.28812 0.15164-0.43977-0.2123-0.84162-1.3572 0.25021-1.6302 0.50042-0.34878 0.31845-0.33362 0.59899 0.23505 0.59899 0.46251-0.0075 0.95535-0.31845 1.2435-0.65965z"/>
 </g>
</svg>
