<?xml version="1.0" encoding="UTF-8"?>
<svg version="1.1" xmlns="http://www.w3.org/2000/svg" width="128" height="128">
<path d="M0 0 C1.35181618 -0.01226624 1.35181618 -0.01226624 2.73094177 -0.02478027 C5.71832621 -0.04962306 8.70566302 -0.06615092 11.69311523 -0.08056641 C13.22585744 -0.08855192 13.22585744 -0.08855192 14.78956413 -0.09669876 C20.20214971 -0.1234304 25.61471226 -0.14280195 31.02734375 -0.15722656 C35.49793042 -0.17054566 39.96805848 -0.19836111 44.43847656 -0.23925781 C49.84309833 -0.28869888 55.24730524 -0.31336231 60.65214348 -0.32045364 C62.70653751 -0.32714795 64.76092296 -0.34232228 66.81518745 -0.36634445 C87.84900441 -0.5981997 87.84900441 -0.5981997 95.18920898 5.19287109 C97.44311523 7.54443359 97.44311523 7.54443359 98.75170898 9.81787109 C99.20674805 10.57326172 99.66178711 11.32865234 100.13061523 12.10693359 C102.4614102 16.69971776 102.35694819 20.9744318 102.38208008 26.00366211 C102.39434631 27.35547829 102.39434631 27.35547829 102.40686035 28.73460388 C102.43170314 31.72198832 102.44823099 34.70932513 102.46264648 37.69677734 C102.46797016 38.71860548 102.47329384 39.74043362 102.47877884 40.79322624 C102.50551048 46.20581182 102.52488202 51.61837436 102.53930664 57.03100586 C102.55262574 61.50159253 102.58044119 65.97172059 102.62133789 70.44213867 C102.67077896 75.84676044 102.69544238 81.25096734 102.70253372 86.65580559 C102.70922803 88.71019962 102.72440236 90.76458507 102.74842453 92.81884956 C102.98027977 113.85266652 102.98027977 113.85266652 97.18920898 121.19287109 C94.83764648 123.44677734 94.83764648 123.44677734 92.56420898 124.75537109 C91.80881836 125.21041016 91.05342773 125.66544922 90.27514648 126.13427734 C85.68236232 128.4650723 81.40764828 128.3606103 76.37841797 128.38574219 C75.02660179 128.39800842 75.02660179 128.39800842 73.6474762 128.41052246 C70.66009176 128.43536524 67.67275495 128.4518931 64.68530273 128.46630859 C63.6634746 128.47163227 62.64164646 128.47695595 61.58885384 128.48244095 C56.17626826 128.50917259 50.76370571 128.52854413 45.35107422 128.54296875 C40.88048755 128.55628784 36.41035949 128.5841033 31.93994141 128.625 C26.53531964 128.67444107 21.13111273 128.69910449 15.72627449 128.70619583 C13.67188045 128.71289014 11.61749501 128.72806447 9.56323051 128.75208664 C-11.47058644 128.98394188 -11.47058644 128.98394188 -18.81079102 123.19287109 C-21.06469727 120.84130859 -21.06469727 120.84130859 -22.37329102 118.56787109 C-22.82833008 117.81248047 -23.28336914 117.05708984 -23.75219727 116.27880859 C-26.08299223 111.68602443 -25.97853022 107.41131039 -26.00366211 102.38208008 C-26.0118396 101.48086929 -26.02001709 100.57965851 -26.02844238 99.65113831 C-26.05328517 96.66375387 -26.06981303 93.67641706 -26.08422852 90.68896484 C-26.08955219 89.66713671 -26.09487587 88.64530857 -26.10036087 87.59251595 C-26.12709251 82.17993037 -26.14646405 76.76736782 -26.16088867 71.35473633 C-26.17420777 66.88414966 -26.20202322 62.41402159 -26.24291992 57.94360352 C-26.29236099 52.53898175 -26.31702441 47.13477484 -26.32411575 41.7299366 C-26.33081006 39.67554256 -26.34598439 37.62115712 -26.37000656 35.56689262 C-26.60186181 14.53307567 -26.60186181 14.53307567 -20.81079102 7.19287109 C-18.45922852 4.93896484 -18.45922852 4.93896484 -16.18579102 3.63037109 C-15.05270508 2.9478125 -15.05270508 2.9478125 -13.89672852 2.25146484 C-9.30394435 -0.07933012 -5.02923031 0.02513189 0 0 Z " fill="#202020" transform="translate(25.810791015625,-0.19287109375)"/>
<path d="M0 0 C10.39961805 8.78399111 17.53455078 20.23080014 18.74609375 33.95703125 C19.2918455 48.56813512 15.82940654 60.90964668 6.51953125 72.3828125 C-2.65729928 82.15409359 -14.85310764 88.0125698 -28.24975586 88.53540039 C-42.55807784 88.70054791 -54.20396159 84.4489513 -65.0390625 74.9140625 C-75.32538428 64.43628634 -79.89931974 51.5850076 -79.91235352 37.12475586 C-79.69941226 24.52594175 -74.81097266 13.88961024 -66.34375 4.5859375 C-48.14869241 -12.87898135 -20.45557162 -15.25708801 0 0 Z " fill="#252525" transform="translate(94.59765625,24.9375)"/>
<path d="M0 0 C10.39961805 8.78399111 17.53455078 20.23080014 18.74609375 33.95703125 C19.2918455 48.56813512 15.82940654 60.90964668 6.51953125 72.3828125 C-2.65729928 82.15409359 -14.85310764 88.0125698 -28.24975586 88.53540039 C-42.55807784 88.70054791 -54.20396159 84.4489513 -65.0390625 74.9140625 C-75.32538428 64.43628634 -79.89931974 51.5850076 -79.91235352 37.12475586 C-79.69941226 24.52594175 -74.81097266 13.88961024 -66.34375 4.5859375 C-48.14869241 -12.87898135 -20.45557162 -15.25708801 0 0 Z M-61.84765625 13.3125 C-69.42304807 22.63930553 -71.38721443 33.37996317 -70.59765625 45.0625 C-68.48179894 57.23764501 -61.52364393 66.90995006 -51.59765625 74.0625 C-40.99756827 79.70548801 -29.42452818 80.65671535 -17.91015625 77.4375 C-7.51135149 73.91790454 0.59545017 66.76651839 5.71484375 57 C10.45841742 47.19089064 11.23939941 35.54666102 7.83984375 25.1875 C3.26929193 14.35657967 -5.19730503 6.26267561 -15.59765625 1.0625 C-33.27519005 -4.87271062 -49.28958798 -0.01247321 -61.84765625 13.3125 Z " fill="#EBE9DD" transform="translate(94.59765625,24.9375)"/>
<path d="M0 0 C1.06661865 0.00845947 1.06661865 0.00845947 2.15478516 0.01708984 C7.46802859 0.14031317 11.50256861 0.74231088 16.125 3.3125 C16.91003906 3.70308594 17.69507813 4.09367187 18.50390625 4.49609375 C29.11490069 10.21469076 36.09351384 18.70248264 39.69921875 30.1328125 C41.81479006 40.96298491 40.40851843 52.44190608 34.546875 61.84375 C27.85551952 70.88612227 19.45973877 77.5832729 8.30859375 79.99609375 C-2.9503912 81.6275388 -14.47872112 79.92723987 -23.77734375 73.109375 C-33.06610155 65.15252474 -39.12172441 55.85399083 -40.09765625 43.4921875 C-40.45028765 31.50271991 -37.04032083 20.93451127 -28.765625 12.046875 C-24.24289889 7.83606104 -19.64055491 4.56519264 -13.875 2.3125 C-12.96878906 1.95542969 -12.06257813 1.59835938 -11.12890625 1.23046875 C-7.37548134 0.17157937 -3.86821186 -0.03201405 0 0 Z M-26.875 20.3125 C-32.76342073 29.53679211 -34.5943831 39.21513497 -32.296875 50.03515625 C-29.2064158 58.89915513 -22.89102389 66.09386807 -14.5625 70.375 C-6.15146714 74.18095851 3.49950765 74.94767562 12.3125 71.875 C22.01224665 67.41280007 28.48475029 59.91312428 32.375 50.1875 C34.19305631 40.79420908 34.17222879 31.66606851 29.125 23.3125 C22.90264658 15.01202468 16.52391789 9.32519378 6.125 7.3125 C-7.88469334 6.10065235 -17.51415757 9.64047575 -26.875 20.3125 Z " fill="#262625" transform="translate(63.875,23.6875)"/>
<path d="M0 0 C9.77758051 5.37404795 15.17325199 13.05881846 18.63671875 23.44921875 C19.49906856 33.40158376 18.5749874 41.97123406 12.6484375 50.21484375 C8.23729125 55.4259388 4.03542768 59.05620565 -2.36328125 61.44921875 C-3.13929687 61.80242187 -3.9153125 62.155625 -4.71484375 62.51953125 C-12.40164471 65.21784781 -21.32639898 63.96639738 -28.72265625 60.90625 C-36.46935253 56.63181551 -42.261183 50.74395972 -45.36328125 42.44921875 C-45.71648438 41.67320313 -46.0696875 40.8971875 -46.43359375 40.09765625 C-49.1312313 32.41278963 -47.88721705 23.4760469 -44.8125 16.0859375 C-35.76886884 -0.3681084 -17.50657418 -7.28375714 0 0 Z M-36.36328125 13.44921875 C-41.12511908 20.46115578 -42.34618598 28.10005051 -41.36328125 36.44921875 C-38.15802442 45.86549192 -32.09644449 51.93505883 -23.36328125 56.44921875 C-16.53082266 58.63893164 -9.44535534 58.34526162 -2.98828125 55.26171875 C3.96921849 51.32682948 9.7735127 45.26009262 12.26171875 37.5 C13.88007795 28.64959813 12.23629419 21.26578296 7.44921875 13.76171875 C3.38319018 8.39750033 -2.84017345 4.88430247 -9.36328125 3.44921875 C-20.3680249 2.40822949 -28.49620192 5.64408492 -36.36328125 13.44921875 Z " fill="#E8E6DA" transform="translate(78.36328125,33.55078125)"/>
<path d="M0 0 C4.52741306 2.57522578 7.21220499 4.97254597 8.81640625 10.0859375 C9.5740357 15.95756572 8.78042355 19.52282077 5.35546875 24.3828125 C2.75931575 27.25571278 0.55799254 28.1658753 -3.18359375 29.0859375 C-8.00055206 29.25177957 -11.87713166 28.80866121 -16.12109375 26.4609375 C-20.18978265 21.77578058 -21.49348609 18.0645388 -21.12109375 11.9609375 C-20.50334233 7.63010574 -19.53226692 5.07259195 -16.18359375 2.0859375 C-11.01974594 -1.31750765 -5.7598272 -2.41109046 0 0 Z " fill="#232323" transform="translate(70.18359375,49.9140625)"/>
<path d="M0 0 C5.31473678 4.99648907 7.77129693 8.51227811 8.25 15.8125 C8.14180108 21.64442183 6.09863571 26.08283106 2.125 30.3125 C-2.74329203 34.76520613 -7.09626323 35.40924226 -13.57421875 35.24609375 C-19.88362326 34.60600923 -24.11734696 30.70259219 -28 26 C-30.78294971 21.44608229 -30.50921908 16.1756693 -30 11 C-28.18816443 5.22477411 -23.87878048 1.39922709 -19 -2 C-12.35494476 -4.25365245 -5.985851 -3.48267695 0 0 Z M-23.640625 6.84375 C-26.03355961 10.63943938 -26.2250817 14.58442666 -26 19 C-24.53291681 23.90401403 -22.38780564 27.27653443 -18 30 C-13.05835422 31.40349464 -8.37320187 31.57178097 -3.625 29.5 C0.34607402 27.15272548 2.57379582 24.38557787 4 20 C4.95535176 14.94459693 4.13288197 10.84958569 1.32421875 6.54296875 C-1.50779783 3.24312643 -4.71879007 1.43558536 -8.984375 0.62109375 C-14.94359287 0.26307872 -19.62238546 2.32801413 -23.640625 6.84375 Z " fill="#E5E3D7" transform="translate(75,48)"/>
</svg>
